<?xml version="1.0" encoding="utf-8"?>
<!-- Generator: Adobe Illustrator 18.1.1, SVG Export Plug-In . SVG Version: 6.00 Build 0)  -->
<svg version="1.1" xmlns="http://www.w3.org/2000/svg" xmlns:xlink="http://www.w3.org/1999/xlink" x="0px" y="0px"
	 viewBox="0 0 500 333" enable-background="new 0 0 500 333" xml:space="preserve">
<g id="Capa_5">
	<rect fill="none" width="500" height="333"/>
</g>
<g id="Capa_1" display="none">
	<g display="inline">
		<g>
			<defs>
				<path id="SVGID_1_" d="M105.9,8.6c0,0-1.3,7.2,0,9.9c1.1,1,1.9,1.3,1.9,1.3s1.2,1.6,1.7,2.8c0.5,1.2,2.8,3.2,2,6.5
					c0.2,1.9,1.9,1.9,1.9,1.9s1.6-0.5,2.2,1.5c1.9,0.9,2.7,1.7,2.7,1.7s1.3,4.4,0.9,5.8s-0.2,2.8-1.3,3.1c-1,0.2-0.8-0.7-5.6,3
					c-4.8,3.8-3,7-3,7s2.2,2.1,0.2,3.3c-2,1.2-0.5,5.2-0.5,5.2l16.5,0.9l3.5,4.4l3.6,0.4l7,8.2l1,4.1l3.5,1.5c0,0,0.9,1.6,2.7,1.5
					c1.8-0.1,5.3,0.8,5.3,0.8s4.2-0.7,5.1,1.3c0.9,2,2.4,2.1,2.4,2.1s5.4,0.4,8.3-1c2.9-1.4,2.3,1,2.3,1s1.2,1.5,1.8,0.9
					c0.6-0.6,2.2-3.7,1.2-5.2c-1-1.5,0.1-2.9,0.1-2.9l3.9-4.4l4.8,1.9l16.6,1.2l4.1-2.1l6.9,0.2l-2.5,3.2l1.6,9.3l2.1,1.1l8.7,5.7
					l-1.2,5.7l2.9,3.3c0,0,0.1,1.6,2.2,2.6c2.1,1,1,2.6,1,2.6s1.2,0.7,1.9,0.7s0,7.5,0,7.5l-5,5.3l4.6,6.8h2l-0.9,3.8l1.7,3.2
					l-4.7,3.9c0,0-1.6,4.1-2.9,5.1c-1.3,1-0.2,3.4-0.2,3.4s2.7-0.1,4.1,1.7c2.6,0.5,7.5,0.8,8.1,2.4c0.6,1.6,5.1,3.9,5.1,3.9
					s0.1,3.5,5-1.3c2.9-0.3,4.6-0.1,4.6-0.1l1.2,5.4l2.1-4.6l2.2,1.5l9.7-2.2l1.9,7.7l-1.3,5.4l2.8,3l4-2.8l0.9,4.4l2.7,3.9
					l-2.7,7.7l1.1,5.3l-1.2,2.1l1.6,4.4l0.1,4.1l-2.3,4h-1.3l-1.5,4.4l-2.7,2.1l0.7,3l-1.6,3.9l2.1,4.3c0,0,0.1,1-0.7,1.2
					s-3.2-0.2-6.4,2.5c-3.2,2.7-3.5,4.7-7.2,4.6s-3.4-2.7-3.4-2.7s-2.8-7.3-4.7-10.3c-1.9-3-6.1-6.9-9.8-5.9c-3.8,1-3.4,3-3.4,3
					s4.8-0.9,4.7,1.2c-0.1,2.1-0.2,6.4,1.8,6.3c1.9-0.1,2.2,0.4,2.2,0.4s0.4,2.8,1.6,3.7c1.2,0.9-0.8,3-0.8,3s-0.9,3.1,0.1,4.6
					c1,1.5,1,4.7-0.1,5.9c-1.1,1.2-1.9,1.5-2.7,5.5c-0.8,4.1,0,5,0,5s3.6,5,0.2,7c-3.4,1.9-4,1.7-4,1.7s-1.9-2.4-2.9,0
					c-1,2.4-1.6,8.1-5.5,8.6c-3.9,0.5-3,2.2-3,2.2s-2.1-1-3.6,2.2c-1.5,0-2.7,1.5-2.7,1.5s1.2,2.5-3.9,3.9c-1.5,0.7-1.3,5.2-1.3,5.2
					s-4.6,4.6-6.2,7.6c-2.3,2.1-2.4,0-2.4,0s-1.8-1.2-5.3,0.1s-6.9,1.8-8.1,1.6c-1.2-0.1-4.9-2.7-5.1-3.6s-1.4-1.9-2.5-1.8
					c-0.8-0.8-1.8-0.4-1.8-0.4s-1.3,1.2-1.9,5.8c-0.5,2.7-5,6.7-5,6.7s-1.2,1-3.8,7c-1,3.1-3.9,0.2-5.5,0.5c-1.6,0.3-3-0.6-3.2,2.3
					c-0.2,2.9-2.6,6.1-4.3,9.2c-3.3,0.9-6.6-3.2-6.6-3.2s-0.3-3.5-4.3-4.9c-1-0.4,0.4-1.9,0.4-1.9s4.3-2.1,4.3-3.6
					c0-1.5-1.7-3.1-0.7-4c1-0.9,4.1-0.7,4.1-0.7s2.6-1.5,3.2-4.6c0.6-3.2,2.6-5.3,2.1-7c-0.5-1.7-4.1-7.2-4.1-7.2s-4.7-5.2-7.8-5.8
					s-4.7-2.9-4.7-2.9s-1.3-0.2-2.7,3.7c-1.3,3.9-1.7,6.3-5.5,7.1c-3.8,0.9-4.3,4.2-4.3,4.2s0.2,6.9-4.3,9.8
					c3.2,4.3,2.2,8.1,2.2,8.1s-2.6,3.3-2.6,8.5s-1.9,9.1-2.6,9.6c0,0-2.2-3.2-4.5-4.3c-2.3-1-4.9-3.9-4.9-3.9s-4.4-2.6-7.2,0.9
					c-1.6,2.2-2,4.6-2,4.6s-2.8,3.5-5.7,2.9c-1.6-0.5-1-4.3-1-4.3s0.2-0.9-2.8-0.6s-8.5,0.1-12.3,1.1c-1.9,1.2-4.1,0.9-4.1,0.9
					s-1.4-1.1-1-4.1c0.4-3,0.4-5.8-0.8-6.1s-7.8-0.5-8.3-0.7c-0.5-0.2-2.6-7.2-3.3-7.7c-0.5-0.2-1.7,0.4-3.8-0.5s-6.4-4.6-6.4-4.6
					s-1.4,2.6-2.4,7c0,2.7-5,2.2-5,2.2s-3.2-1.6-1.6-4.6c1.6-2.9,1.1-8.6,1.1-8.6s-2.7-1.8-2.7-3.2s0.5-0.7,0.4-4.1
					c-0.1-3.5,0.2-6.7-0.1-7.7c-0.3-0.9-1.5-2.3-3.6-2.6c-2.2-0.2-4.1,1.3-4.1,1.3s-2.2,3.3-5.3,3.7c-3.1,0.4-3,0.1-5.5-2
					c-2.5-2.1-6.5-5.4-6.5-5.4s-2.1-3.5-2-5.5c-2.2-1.9-2-3.6-2-3.6l1.3-4.3c0,0-3-1.2-3.9-2.1s-4.5-8.9-3-9.9
					c1.5-1,3.9,1.8,7.5-4.7s4-8.2,5.3-8.9c1.3-0.7,4.3,1.2,5.3-0.2c1-1.3-1.8-6.2-2.8-8.2c-1-2-0.5-3.9,0.6-5.7
					c1.1-1.8-3-4.1-2.6-6.3c0.4-2.2,1.2-4.9,3.2-6.7c2-1.8,1.5-3.8,4.5-4.1c3-0.4,9.7-2.3,12.1-4.5c2.4-2.2,5.2-7.7,7.4-7.6
					s4.4,0.4,10.5-7.1c6.1-7.5,6.7-7.6,9.3-10.9c2.7-3.3,3.9-7.3,8.4-9.2s9.1-2.5,11.8-6.4c2.7-3.8,2.3-9.3,1-11.8
					c-1.3-2.5-3.9-11.5-3.9-11.5s-0.3-11.3,0.2-15.3c0.6-4,3.3-13.9,3.3-13.9S86,96,87.7,93s5.4-4.6,5.9-5c0.6-0.4,5.9-9.1,5.8-12.3
					c-0.1-3.2,0.2-12.4,1.5-14.5s0.4-7.6-0.6-12.1s-4-7.4-4-10S91.8,25.7,93,23.4s3.5-8.5,4.8-9.9C99.3,11.7,104.3,8.3,105.9,8.6z"
					/>
			</defs>
			<clipPath id="SVGID_2_">
				<use xlink:href="#SVGID_1_"  overflow="visible"/>
			</clipPath>
			<g clip-path="url(#SVGID_2_)">
				
					<line fill="none" stroke="#347CB7" stroke-width="4" stroke-linecap="round" stroke-linejoin="round" stroke-miterlimit="10" x1="-5.9" y1="35.6" x2="297.1" y2="-137.7"/>
				
					<line fill="none" stroke="#347CB7" stroke-width="4" stroke-linecap="round" stroke-linejoin="round" stroke-miterlimit="10" x1="-5.9" y1="49.6" x2="297.1" y2="-123.7"/>
				
					<line fill="none" stroke="#347CB7" stroke-width="4" stroke-linecap="round" stroke-linejoin="round" stroke-miterlimit="10" x1="-5.9" y1="63.6" x2="297.1" y2="-109.7"/>
				
					<line fill="none" stroke="#347CB7" stroke-width="4" stroke-linecap="round" stroke-linejoin="round" stroke-miterlimit="10" x1="-5.9" y1="77.6" x2="297.1" y2="-95.7"/>
				
					<line fill="none" stroke="#347CB7" stroke-width="4" stroke-linecap="round" stroke-linejoin="round" stroke-miterlimit="10" x1="-5.9" y1="90.8" x2="297.1" y2="-82.4"/>
				
					<line fill="none" stroke="#347CB7" stroke-width="4" stroke-linecap="round" stroke-linejoin="round" stroke-miterlimit="10" x1="-5.9" y1="104.8" x2="297.1" y2="-68.4"/>
				
					<line fill="none" stroke="#347CB7" stroke-width="4" stroke-linecap="round" stroke-linejoin="round" stroke-miterlimit="10" x1="-5.9" y1="118.8" x2="297.1" y2="-54.4"/>
				
					<line fill="none" stroke="#347CB7" stroke-width="4" stroke-linecap="round" stroke-linejoin="round" stroke-miterlimit="10" x1="-5.9" y1="132.8" x2="297.1" y2="-40.4"/>
				
					<line fill="none" stroke="#347CB7" stroke-width="4" stroke-linecap="round" stroke-linejoin="round" stroke-miterlimit="10" x1="-5.9" y1="146.3" x2="297.1" y2="-27"/>
				
					<line fill="none" stroke="#347CB7" stroke-width="4" stroke-linecap="round" stroke-linejoin="round" stroke-miterlimit="10" x1="-5.9" y1="160.3" x2="297.1" y2="-13"/>
				
					<line fill="none" stroke="#347CB7" stroke-width="4" stroke-linecap="round" stroke-linejoin="round" stroke-miterlimit="10" x1="-5.9" y1="174.3" x2="297.1" y2="1"/>
				
					<line fill="none" stroke="#347CB7" stroke-width="4" stroke-linecap="round" stroke-linejoin="round" stroke-miterlimit="10" x1="-5.9" y1="188.3" x2="297.1" y2="15"/>
				
					<line fill="none" stroke="#347CB7" stroke-width="4" stroke-linecap="round" stroke-linejoin="round" stroke-miterlimit="10" x1="-5.9" y1="201.6" x2="297.1" y2="28.3"/>
				
					<line fill="none" stroke="#347CB7" stroke-width="4" stroke-linecap="round" stroke-linejoin="round" stroke-miterlimit="10" x1="-5.9" y1="215.6" x2="297.1" y2="42.3"/>
				
					<line fill="none" stroke="#347CB7" stroke-width="4" stroke-linecap="round" stroke-linejoin="round" stroke-miterlimit="10" x1="-5.9" y1="229.6" x2="297.1" y2="56.3"/>
				
					<line fill="none" stroke="#347CB7" stroke-width="4" stroke-linecap="round" stroke-linejoin="round" stroke-miterlimit="10" x1="-5.9" y1="243.6" x2="297.1" y2="70.3"/>
				
					<line fill="none" stroke="#347CB7" stroke-width="4" stroke-linecap="round" stroke-linejoin="round" stroke-miterlimit="10" x1="-5.9" y1="255.8" x2="297.1" y2="82.6"/>
				
					<line fill="none" stroke="#347CB7" stroke-width="4" stroke-linecap="round" stroke-linejoin="round" stroke-miterlimit="10" x1="-5.9" y1="269.8" x2="297.1" y2="96.6"/>
				
					<line fill="none" stroke="#347CB7" stroke-width="4" stroke-linecap="round" stroke-linejoin="round" stroke-miterlimit="10" x1="-5.9" y1="283.8" x2="297.1" y2="110.6"/>
				
					<line fill="none" stroke="#347CB7" stroke-width="4" stroke-linecap="round" stroke-linejoin="round" stroke-miterlimit="10" x1="-5.9" y1="297.8" x2="297.1" y2="124.6"/>
				
					<line fill="none" stroke="#347CB7" stroke-width="4" stroke-linecap="round" stroke-linejoin="round" stroke-miterlimit="10" x1="-5.9" y1="311.1" x2="297.1" y2="137.9"/>
				
					<line fill="none" stroke="#347CB7" stroke-width="4" stroke-linecap="round" stroke-linejoin="round" stroke-miterlimit="10" x1="-5.9" y1="325.1" x2="297.1" y2="151.9"/>
				
					<line fill="none" stroke="#347CB7" stroke-width="4" stroke-linecap="round" stroke-linejoin="round" stroke-miterlimit="10" x1="-5.9" y1="339.1" x2="297.1" y2="165.9"/>
				
					<line fill="none" stroke="#347CB7" stroke-width="4" stroke-linecap="round" stroke-linejoin="round" stroke-miterlimit="10" x1="-5.9" y1="353.1" x2="297.1" y2="179.9"/>
				
					<line fill="none" stroke="#347CB7" stroke-width="4" stroke-linecap="round" stroke-linejoin="round" stroke-miterlimit="10" x1="-5.9" y1="366.6" x2="297.1" y2="193.3"/>
				
					<line fill="none" stroke="#347CB7" stroke-width="4" stroke-linecap="round" stroke-linejoin="round" stroke-miterlimit="10" x1="-5.9" y1="380.6" x2="297.1" y2="207.3"/>
				
					<line fill="none" stroke="#347CB7" stroke-width="4" stroke-linecap="round" stroke-linejoin="round" stroke-miterlimit="10" x1="-5.9" y1="394.6" x2="297.1" y2="221.3"/>
				
					<line fill="none" stroke="#347CB7" stroke-width="4" stroke-linecap="round" stroke-linejoin="round" stroke-miterlimit="10" x1="-5.9" y1="408.6" x2="297.1" y2="235.3"/>
				
					<line fill="none" stroke="#347CB7" stroke-width="4" stroke-linecap="round" stroke-linejoin="round" stroke-miterlimit="10" x1="-5.9" y1="421.9" x2="297.1" y2="248.6"/>
				
					<line fill="none" stroke="#347CB7" stroke-width="4" stroke-linecap="round" stroke-linejoin="round" stroke-miterlimit="10" x1="-5.9" y1="435.9" x2="297.1" y2="262.6"/>
				
					<line fill="none" stroke="#347CB7" stroke-width="4" stroke-linecap="round" stroke-linejoin="round" stroke-miterlimit="10" x1="-5.9" y1="449.9" x2="297.1" y2="276.6"/>
				
					<line fill="none" stroke="#347CB7" stroke-width="4" stroke-linecap="round" stroke-linejoin="round" stroke-miterlimit="10" x1="-5.9" y1="463.9" x2="297.1" y2="290.6"/>
			</g>
		</g>
		<path fill="none" stroke="#347CB7" stroke-width="4" stroke-linecap="round" stroke-linejoin="round" stroke-miterlimit="10" d="
			M105.9,8.6c0,0-1.3,7.2,0,9.9c1.1,1,1.9,1.3,1.9,1.3s1.2,1.6,1.7,2.8c0.5,1.2,2.8,3.2,2,6.5c0.2,1.9,1.9,1.9,1.9,1.9
			s1.6-0.5,2.2,1.5c1.9,0.9,2.7,1.7,2.7,1.7s1.3,4.4,0.9,5.8s-0.2,2.8-1.3,3.1c-1,0.2-0.8-0.7-5.6,3c-4.8,3.8-3,7-3,7
			s2.2,2.1,0.2,3.3c-2,1.2-0.5,5.2-0.5,5.2l16.5,0.9l3.5,4.4l3.6,0.4l7,8.2l1,4.1l3.5,1.5c0,0,0.9,1.6,2.7,1.5
			c1.8-0.1,5.3,0.8,5.3,0.8s4.2-0.7,5.1,1.3c0.9,2,2.4,2.1,2.4,2.1s5.4,0.4,8.3-1c2.9-1.4,2.3,1,2.3,1s1.2,1.5,1.8,0.9
			c0.6-0.6,2.2-3.7,1.2-5.2c-1-1.5,0.1-2.9,0.1-2.9l3.9-4.4l4.8,1.9l16.6,1.2l4.1-2.1l6.9,0.2l-2.5,3.2l1.6,9.3l2.1,1.1l8.7,5.7
			l-1.2,5.7l2.9,3.3c0,0,0.1,1.6,2.2,2.6c2.1,1,1,2.6,1,2.6s1.2,0.7,1.9,0.7s0,7.5,0,7.5l-5,5.3l4.6,6.8h2l-0.9,3.8l1.7,3.2
			l-4.7,3.9c0,0-1.6,4.1-2.9,5.1c-1.3,1-0.2,3.4-0.2,3.4s2.7-0.1,4.1,1.7c2.6,0.5,7.5,0.8,8.1,2.4c0.6,1.6,5.1,3.9,5.1,3.9
			s0.1,3.5,5-1.3c2.9-0.3,4.6-0.1,4.6-0.1l1.2,5.4l2.1-4.6l2.2,1.5l9.7-2.2l1.9,7.7l-1.3,5.4l2.8,3l4-2.8l0.9,4.4l2.7,3.9l-2.7,7.7
			l1.1,5.3l-1.2,2.1l1.6,4.4l0.1,4.1l-2.3,4h-1.3l-1.5,4.4l-2.7,2.1l0.7,3l-1.6,3.9l2.1,4.3c0,0,0.1,1-0.7,1.2s-3.2-0.2-6.4,2.5
			c-3.2,2.7-3.5,4.7-7.2,4.6s-3.4-2.7-3.4-2.7s-2.8-7.3-4.7-10.3c-1.9-3-6.1-6.9-9.8-5.9c-3.8,1-3.4,3-3.4,3s4.8-0.9,4.7,1.2
			c-0.1,2.1-0.2,6.4,1.8,6.3c1.9-0.1,2.2,0.4,2.2,0.4s0.4,2.8,1.6,3.7c1.2,0.9-0.8,3-0.8,3s-0.9,3.1,0.1,4.6c1,1.5,1,4.7-0.1,5.9
			c-1.1,1.2-1.9,1.5-2.7,5.5c-0.8,4.1,0,5,0,5s3.6,5,0.2,7c-3.4,1.9-4,1.7-4,1.7s-1.9-2.4-2.9,0c-1,2.4-1.6,8.1-5.5,8.6
			c-3.9,0.5-3,2.2-3,2.2s-2.1-1-3.6,2.2c-1.5,0-2.7,1.5-2.7,1.5s1.2,2.5-3.9,3.9c-1.5,0.7-1.3,5.2-1.3,5.2s-4.6,4.6-6.2,7.6
			c-2.3,2.1-2.4,0-2.4,0s-1.8-1.2-5.3,0.1s-6.9,1.8-8.1,1.6c-1.2-0.1-4.9-2.7-5.1-3.6s-1.4-1.9-2.5-1.8c-0.8-0.8-1.8-0.4-1.8-0.4
			s-1.3,1.2-1.9,5.8c-0.5,2.7-5,6.7-5,6.7s-1.2,1-3.8,7c-1,3.1-3.9,0.2-5.5,0.5c-1.6,0.3-3-0.6-3.2,2.3c-0.2,2.9-2.6,6.1-4.3,9.2
			c-3.3,0.9-6.6-3.2-6.6-3.2s-0.3-3.5-4.3-4.9c-1-0.4,0.4-1.9,0.4-1.9s4.3-2.1,4.3-3.6c0-1.5-1.7-3.1-0.7-4c1-0.9,4.1-0.7,4.1-0.7
			s2.6-1.5,3.2-4.6c0.6-3.2,2.6-5.3,2.1-7c-0.5-1.7-4.1-7.2-4.1-7.2s-4.7-5.2-7.8-5.8s-4.7-2.9-4.7-2.9s-1.3-0.2-2.7,3.7
			c-1.3,3.9-1.7,6.3-5.5,7.1c-3.8,0.9-4.3,4.2-4.3,4.2s0.2,6.9-4.3,9.8c3.2,4.3,2.2,8.1,2.2,8.1s-2.6,3.3-2.6,8.5s-1.9,9.1-2.6,9.6
			c0,0-2.2-3.2-4.5-4.3c-2.3-1-4.9-3.9-4.9-3.9s-4.4-2.6-7.2,0.9c-1.6,2.2-2,4.6-2,4.6s-2.8,3.5-5.7,2.9c-1.6-0.5-1-4.3-1-4.3
			s0.2-0.9-2.8-0.6s-8.5,0.1-12.3,1.1c-1.9,1.2-4.1,0.9-4.1,0.9s-1.4-1.1-1-4.1c0.4-3,0.4-5.8-0.8-6.1s-7.8-0.5-8.3-0.7
			c-0.5-0.2-2.6-7.2-3.3-7.7c-0.5-0.2-1.7,0.4-3.8-0.5s-6.4-4.6-6.4-4.6s-1.4,2.6-2.4,7c0,2.7-5,2.2-5,2.2s-3.2-1.6-1.6-4.6
			c1.6-2.9,1.1-8.6,1.1-8.6s-2.7-1.8-2.7-3.2s0.5-0.7,0.4-4.1c-0.1-3.5,0.2-6.7-0.1-7.7c-0.3-0.9-1.5-2.3-3.6-2.6
			c-2.2-0.2-4.1,1.3-4.1,1.3s-2.2,3.3-5.3,3.7c-3.1,0.4-3,0.1-5.5-2c-2.5-2.1-6.5-5.4-6.5-5.4s-2.1-3.5-2-5.5c-2.2-1.9-2-3.6-2-3.6
			l1.3-4.3c0,0-3-1.2-3.9-2.1s-4.5-8.9-3-9.9c1.5-1,3.9,1.8,7.5-4.7s4-8.2,5.3-8.9c1.3-0.7,4.3,1.2,5.3-0.2c1-1.3-1.8-6.2-2.8-8.2
			c-1-2-0.5-3.9,0.6-5.7c1.1-1.8-3-4.1-2.6-6.3c0.4-2.2,1.2-4.9,3.2-6.7c2-1.8,1.5-3.8,4.5-4.1c3-0.4,9.7-2.3,12.1-4.5
			c2.4-2.2,5.2-7.7,7.4-7.6s4.4,0.4,10.5-7.1c6.1-7.5,6.7-7.6,9.3-10.9c2.7-3.3,3.9-7.3,8.4-9.2s9.1-2.5,11.8-6.4
			c2.7-3.8,2.3-9.3,1-11.8c-1.3-2.5-3.9-11.5-3.9-11.5s-0.3-11.3,0.2-15.3c0.6-4,3.3-13.9,3.3-13.9S86,96,87.7,93s5.4-4.6,5.9-5
			c0.6-0.4,5.9-9.1,5.8-12.3c-0.1-3.2,0.2-12.4,1.5-14.5s0.4-7.6-0.6-12.1s-4-7.4-4-10S91.8,25.7,93,23.4s3.5-8.5,4.8-9.9
			C99.3,11.7,104.3,8.3,105.9,8.6z"/>
	</g>
	<text transform="matrix(1 0 0 1 308.3004 156.4602)" display="inline" fill="#347CB7" font-family="'Aller'" font-size="32.4981">Santander</text>
</g>
<g id="Capa_2" display="none">
	<g display="inline">
		<g>
			<defs>
				<path id="SVGID_3_" d="M161.4,95.3L147.7,36c0,0-3-9-8.9-5.3c-5.9-2.3-8,1.8-8,1.8s-5.4,6.2-7.3,3.1c-1.9-3.1,1.4-3.7-1-5.8
					s-2.2-3.2-1-4.4s2.3-2.8,1.2-4.8c-1.2-1.9-4.4-0.6-4.8-3.3s1.7-5.8-0.5-7.7s-6.7-0.4-7.2,1.8s-4.9,5.8-9.4,6.1s-5.1,6.7-8,7.6
					c-2.8,0.9-6.6-1.9-9.3-0.3c-2.7,1.7-4.5,1.5-8.2,0c-3.7-1.5-5.9,2.6-8,2.4s-4.5-2.7-5-0.4s-1.8,3.6,0,10.7
					c1.8,7.1-2.7,13.8-2.7,13.8s-0.8,9.9,0,13.8s5.7,8.1,3.2,11.8c-2.4,3.7-8.5,2.4-8.2,5.5s0.6,3.7-3.1,6.2
					c-3.7,2.4-8,9.9-4.5,17.1c3.5,7.2,3.9,3.1,4.7,11.3c4.1-1.4,2.2,2.9,2.2,2.9s-0.8,4.1-3.5,6.3s-1.2,3.1,1.7,3.2
					c2.9,0.1,5.5,0.8,5.4,2.6c-0.1,1.8-0.1,5.3,1,4.4c1.1-0.9,2.3-3.3,4.2-4.5c1.9-1.2,3.3-2.8,2.1-5.6c-1.2-2.7-3.6-7-1.2-7.7
					s7.9-0.9,8.2,1c0.3,2,0,8.1-0.9,10.8c-0.9,2.7-1.3,12.3-4.7,15.6c-3.4,3.3-0.8,9.8-0.8,9.8s-2.6,5.9,2.1,8.5
					c2.3,1.5,0.4,11.8,2.3,12.4c1.9,0.6,6.7-0.8,7.5,1.5s3.3,2,3.5,5.3c0.2,3.3-1.5,7-4.7,7.4c-3.2,0.3-6.7,3.3-5.3,7
					c1.4,3.8-2.4,13.9-11.6,20.2c-9.2,6.3-10.7-0.9-10.7-0.9s-3.3,1.3-5.1-1.2c-1.7-2.5-4.3-3.5-8.7-3.6c0,0,2.2,2.1,4,5
					c1.8,2.8,4.2,0.3,4.4,1.5c0.2,1.2-0.1,3.6,1,4.1c1.1,0.5,5.8,3,4.9,4.6c-0.9,1.6,0.3,3.5,2.2,3.7c1.9,0.2,1.4,2.2,3.8,3.1
					s6.3-0.3,7.5,0.5c1.3,0.9,2.6,0.4,3.4-0.5c0.9-0.9,3.7,2.1,4.4,3.3c0.7,1.2,7.3,0,10.2,1.4s4.4,2.3,4.5,1.5
					c0.1-0.8-0.2-4.2-0.8-6.3c-0.6-2.1,1.5-7.5,3.9-7.9c2.5-0.3,6.5,2.5,9.8,3.1c3.3,0.6,5.5-0.7,6.1-0.7c0.6,0,2.8,1.8,5.4,1.2
					s4.3-3.6,7-1.9c2.7,1.7,1.4,4,1.8,6s2.2,6.3,2.5,6.7c0.3,0.4,7.1,5.9,8.9,6.5s-0.5,5.8,0.8,7c1.3,1.2,3.4,8.9,7.6,8.7
					s-4.2,8.7-4,11.3c0.2,2.7,0.5,7.2,4.5,8.4c3.9,1.2-1.1,9.1-1.1,9.1s-11.7,10.9,2.4,12c9.4,1.1,7.5,4.9,10.8,6.4
					c3.3,1.5,4.4,0.6,6.6-0.4s2.7-1.2,2.9,0.9s0.5,3.3,1.2,3.2c0.7-0.1-0.1-3.3,2.9-3.3c3.1,0,4.8-1.5,8.8-1.4
					c4,0.2,5.1,4.6,4.1,6.9c-1,2.3-2.1,7.8,0.9,8.5c2.9,0.7,4-2.6,6.7-4.8s3.4,2.6,6.4,4.2c3,1.6,5.6,4.9,8.1,1.6
					c2.6-3.3,4.9-1,7.5-6.3c2.7-5.2,3.3-12.1,5.4-11.8s3.7,1.1,3.7,3.5c0,2.4,2.1-0.3,5.5,0.4s5.1,2.4,6.6,5.5
					c1.5,3.1,4.2,0.2,4.2,0.2s2.1-0.6,2.2-6.3c0.1-5.7,4.2-6.7,4.2-6.7l7.5,3.6l-18-31.5c0,0-2.9,0.3-2.1-3.9c0.9-4.1,3.1-5,2.2-6.3
					c-0.9-1.4-3.9-2-5.4-6.7c-1.5-4.7-9.5-0.5-9.5-0.5s-5.6,2-9.5-0.8c-3.9-2.7-8,0.9-10.2-1c-2.2-1.9-3.4-8-6.2-10.2
					c-2.7-2.2,0.3-7.2,0.3-7.2s1.4-3.9-1.4-14.3c-2.7-10.4,1.4-7.7,0.7-12.6s-0.6-8.1,0.5-8.9s2.9-4.8,1.5-10.1
					c-1.5-5.3-4.4-6.7-4.4-6.7s0.3-4.2,4-4c3.7,0.2,2.1-3.3,2.1-3.3s3.5,0.6,3.8-2.7c0.3-3.3,1.5-4.1,2.7-3.5
					c1.1,0.6,3.3,3.9,4.7,3.4c1.4-0.4,1.3,0.1,0.8-3.7s-1.5-4.5-2.5-7.9s2.4-5.9,0.5-10.5c-1.9-4.6-3.9-7.8-3.6-11.6
					s2.3-10.6-0.7-13c-3-2.4-5.2-2.8-5.2-2.8l-24.6-26.9C166.9,100.4,164.4,100.9,161.4,95.3z"/>
			</defs>
			<clipPath id="SVGID_4_">
				<use xlink:href="#SVGID_3_"  overflow="visible"/>
			</clipPath>
			<g clip-path="url(#SVGID_4_)">
				
					<line fill="none" stroke="#347CB7" stroke-width="4" stroke-linecap="round" stroke-linejoin="round" stroke-miterlimit="10" x1="-37.3" y1="51.1" x2="272.3" y2="-125.9"/>
				
					<line fill="none" stroke="#347CB7" stroke-width="4" stroke-linecap="round" stroke-linejoin="round" stroke-miterlimit="10" x1="-37.3" y1="65.4" x2="272.3" y2="-111.6"/>
				
					<line fill="none" stroke="#347CB7" stroke-width="4" stroke-linecap="round" stroke-linejoin="round" stroke-miterlimit="10" x1="-37.3" y1="79.7" x2="272.3" y2="-97.3"/>
				
					<line fill="none" stroke="#347CB7" stroke-width="4" stroke-linecap="round" stroke-linejoin="round" stroke-miterlimit="10" x1="-37.3" y1="94" x2="272.3" y2="-83"/>
				
					<line fill="none" stroke="#347CB7" stroke-width="4" stroke-linecap="round" stroke-linejoin="round" stroke-miterlimit="10" x1="-37.3" y1="107.6" x2="272.3" y2="-69.4"/>
				
					<line fill="none" stroke="#347CB7" stroke-width="4" stroke-linecap="round" stroke-linejoin="round" stroke-miterlimit="10" x1="-37.3" y1="121.9" x2="272.3" y2="-55.1"/>
				
					<line fill="none" stroke="#347CB7" stroke-width="4" stroke-linecap="round" stroke-linejoin="round" stroke-miterlimit="10" x1="-37.3" y1="136.2" x2="272.3" y2="-40.8"/>
				
					<line fill="none" stroke="#347CB7" stroke-width="4" stroke-linecap="round" stroke-linejoin="round" stroke-miterlimit="10" x1="-37.3" y1="150.5" x2="272.3" y2="-26.5"/>
				
					<line fill="none" stroke="#347CB7" stroke-width="4" stroke-linecap="round" stroke-linejoin="round" stroke-miterlimit="10" x1="-37.3" y1="164.3" x2="272.3" y2="-12.7"/>
				
					<line fill="none" stroke="#347CB7" stroke-width="4" stroke-linecap="round" stroke-linejoin="round" stroke-miterlimit="10" x1="-37.3" y1="178.6" x2="272.3" y2="1.6"/>
				
					<line fill="none" stroke="#347CB7" stroke-width="4" stroke-linecap="round" stroke-linejoin="round" stroke-miterlimit="10" x1="-37.3" y1="192.9" x2="272.3" y2="15.9"/>
				
					<line fill="none" stroke="#347CB7" stroke-width="4" stroke-linecap="round" stroke-linejoin="round" stroke-miterlimit="10" x1="-37.3" y1="207.2" x2="272.3" y2="30.2"/>
				
					<line fill="none" stroke="#347CB7" stroke-width="4" stroke-linecap="round" stroke-linejoin="round" stroke-miterlimit="10" x1="-37.3" y1="220.8" x2="272.3" y2="43.7"/>
				
					<line fill="none" stroke="#347CB7" stroke-width="4" stroke-linecap="round" stroke-linejoin="round" stroke-miterlimit="10" x1="-37.3" y1="235.1" x2="272.3" y2="58"/>
				
					<line fill="none" stroke="#347CB7" stroke-width="4" stroke-linecap="round" stroke-linejoin="round" stroke-miterlimit="10" x1="-37.3" y1="249.4" x2="272.3" y2="72.3"/>
				
					<line fill="none" stroke="#347CB7" stroke-width="4" stroke-linecap="round" stroke-linejoin="round" stroke-miterlimit="10" x1="-37.3" y1="263.7" x2="272.3" y2="86.7"/>
				
					<line fill="none" stroke="#347CB7" stroke-width="4" stroke-linecap="round" stroke-linejoin="round" stroke-miterlimit="10" x1="-37.3" y1="276.2" x2="272.3" y2="99.2"/>
				
					<line fill="none" stroke="#347CB7" stroke-width="4" stroke-linecap="round" stroke-linejoin="round" stroke-miterlimit="10" x1="-37.3" y1="290.5" x2="272.3" y2="113.5"/>
				
					<line fill="none" stroke="#347CB7" stroke-width="4" stroke-linecap="round" stroke-linejoin="round" stroke-miterlimit="10" x1="-37.3" y1="304.8" x2="272.3" y2="127.8"/>
				
					<line fill="none" stroke="#347CB7" stroke-width="4" stroke-linecap="round" stroke-linejoin="round" stroke-miterlimit="10" x1="-37.3" y1="319.1" x2="272.3" y2="142.1"/>
				
					<line fill="none" stroke="#347CB7" stroke-width="4" stroke-linecap="round" stroke-linejoin="round" stroke-miterlimit="10" x1="-37.3" y1="332.7" x2="272.3" y2="155.7"/>
				
					<line fill="none" stroke="#347CB7" stroke-width="4" stroke-linecap="round" stroke-linejoin="round" stroke-miterlimit="10" x1="-37.3" y1="347" x2="272.3" y2="170"/>
				
					<line fill="none" stroke="#347CB7" stroke-width="4" stroke-linecap="round" stroke-linejoin="round" stroke-miterlimit="10" x1="-37.3" y1="361.3" x2="272.3" y2="184.3"/>
				
					<line fill="none" stroke="#347CB7" stroke-width="4" stroke-linecap="round" stroke-linejoin="round" stroke-miterlimit="10" x1="-37.3" y1="375.6" x2="272.3" y2="198.6"/>
				
					<line fill="none" stroke="#347CB7" stroke-width="4" stroke-linecap="round" stroke-linejoin="round" stroke-miterlimit="10" x1="-37.3" y1="389.3" x2="272.3" y2="212.3"/>
				
					<line fill="none" stroke="#347CB7" stroke-width="4" stroke-linecap="round" stroke-linejoin="round" stroke-miterlimit="10" x1="-37.3" y1="403.6" x2="272.3" y2="226.6"/>
				
					<line fill="none" stroke="#347CB7" stroke-width="4" stroke-linecap="round" stroke-linejoin="round" stroke-miterlimit="10" x1="-37.3" y1="417.9" x2="272.3" y2="240.9"/>
				
					<line fill="none" stroke="#347CB7" stroke-width="4" stroke-linecap="round" stroke-linejoin="round" stroke-miterlimit="10" x1="-37.3" y1="432.2" x2="272.3" y2="255.2"/>
				
					<line fill="none" stroke="#347CB7" stroke-width="4" stroke-linecap="round" stroke-linejoin="round" stroke-miterlimit="10" x1="-37.3" y1="445.8" x2="272.3" y2="268.8"/>
				
					<line fill="none" stroke="#347CB7" stroke-width="4" stroke-linecap="round" stroke-linejoin="round" stroke-miterlimit="10" x1="-37.3" y1="460.1" x2="272.3" y2="283.1"/>
				
					<line fill="none" stroke="#347CB7" stroke-width="4" stroke-linecap="round" stroke-linejoin="round" stroke-miterlimit="10" x1="-37.3" y1="474.4" x2="272.3" y2="297.4"/>
				
					<line fill="none" stroke="#347CB7" stroke-width="4" stroke-linecap="round" stroke-linejoin="round" stroke-miterlimit="10" x1="-37.3" y1="488.7" x2="272.3" y2="311.7"/>
			</g>
		</g>
		<path fill="none" stroke="#347CB7" stroke-width="4" stroke-linecap="round" stroke-linejoin="round" stroke-miterlimit="10" d="
			M161.4,95.3L147.7,36c0,0-3-9-8.9-5.3c-5.9-2.3-8,1.8-8,1.8s-5.4,6.2-7.3,3.1c-1.9-3.1,1.4-3.7-1-5.8s-2.2-3.2-1-4.4
			s2.3-2.8,1.2-4.8c-1.2-1.9-4.4-0.6-4.8-3.3s1.7-5.8-0.5-7.7s-6.7-0.4-7.2,1.8s-4.9,5.8-9.4,6.1s-5.1,6.7-8,7.6
			c-2.8,0.9-6.6-1.9-9.3-0.3c-2.7,1.7-4.5,1.5-8.2,0c-3.7-1.5-5.9,2.6-8,2.4s-4.5-2.7-5-0.4s-1.8,3.6,0,10.7
			c1.8,7.1-2.7,13.8-2.7,13.8s-0.8,9.9,0,13.8s5.7,8.1,3.2,11.8c-2.4,3.7-8.5,2.4-8.2,5.5s0.6,3.7-3.1,6.2c-3.7,2.4-8,9.9-4.5,17.1
			c3.5,7.2,3.9,3.1,4.7,11.3c4.1-1.4,2.2,2.9,2.2,2.9s-0.8,4.1-3.5,6.3s-1.2,3.1,1.7,3.2c2.9,0.1,5.5,0.8,5.4,2.6
			c-0.1,1.8-0.1,5.3,1,4.4c1.1-0.9,2.3-3.3,4.2-4.5c1.9-1.2,3.3-2.8,2.1-5.6c-1.2-2.7-3.6-7-1.2-7.7s7.9-0.9,8.2,1
			c0.3,2,0,8.1-0.9,10.8c-0.9,2.7-1.3,12.3-4.7,15.6c-3.4,3.3-0.8,9.8-0.8,9.8s-2.6,5.9,2.1,8.5c2.3,1.5,0.4,11.8,2.3,12.4
			c1.9,0.6,6.7-0.8,7.5,1.5s3.3,2,3.5,5.3c0.2,3.3-1.5,7-4.7,7.4c-3.2,0.3-6.7,3.3-5.3,7c1.4,3.8-2.4,13.9-11.6,20.2
			c-9.2,6.3-10.7-0.9-10.7-0.9s-3.3,1.3-5.1-1.2c-1.7-2.5-4.3-3.5-8.7-3.6c0,0,2.2,2.1,4,5c1.8,2.8,4.2,0.3,4.4,1.5
			c0.2,1.2-0.1,3.6,1,4.1c1.1,0.5,5.8,3,4.9,4.6c-0.9,1.6,0.3,3.5,2.2,3.7c1.9,0.2,1.4,2.2,3.8,3.1s6.3-0.3,7.5,0.5
			c1.3,0.9,2.6,0.4,3.4-0.5c0.9-0.9,3.7,2.1,4.4,3.3c0.7,1.2,7.3,0,10.2,1.4s4.4,2.3,4.5,1.5c0.1-0.8-0.2-4.2-0.8-6.3
			c-0.6-2.1,1.5-7.5,3.9-7.9c2.5-0.3,6.5,2.5,9.8,3.1c3.3,0.6,5.5-0.7,6.1-0.7c0.6,0,2.8,1.8,5.4,1.2s4.3-3.6,7-1.9
			c2.7,1.7,1.4,4,1.8,6s2.2,6.3,2.5,6.7c0.3,0.4,7.1,5.9,8.9,6.5s-0.5,5.8,0.8,7c1.3,1.2,3.4,8.9,7.6,8.7s-4.2,8.7-4,11.3
			c0.2,2.7,0.5,7.2,4.5,8.4c3.9,1.2-1.1,9.1-1.1,9.1s-11.7,10.9,2.4,12c9.4,1.1,7.5,4.9,10.8,6.4c3.3,1.5,4.4,0.6,6.6-0.4
			s2.7-1.2,2.9,0.9s0.5,3.3,1.2,3.2c0.7-0.1-0.1-3.3,2.9-3.3c3.1,0,4.8-1.5,8.8-1.4c4,0.2,5.1,4.6,4.1,6.9c-1,2.3-2.1,7.8,0.9,8.5
			c2.9,0.7,4-2.6,6.7-4.8s3.4,2.6,6.4,4.2c3,1.6,5.6,4.9,8.1,1.6c2.6-3.3,4.9-1,7.5-6.3c2.7-5.2,3.3-12.1,5.4-11.8s3.7,1.1,3.7,3.5
			c0,2.4,2.1-0.3,5.5,0.4s5.1,2.4,6.6,5.5c1.5,3.1,4.2,0.2,4.2,0.2s2.1-0.6,2.2-6.3c0.1-5.7,4.2-6.7,4.2-6.7l7.5,3.6l-18-31.5
			c0,0-2.9,0.3-2.1-3.9c0.9-4.1,3.1-5,2.2-6.3c-0.9-1.4-3.9-2-5.4-6.7c-1.5-4.7-9.5-0.5-9.5-0.5s-5.6,2-9.5-0.8
			c-3.9-2.7-8,0.9-10.2-1c-2.2-1.9-3.4-8-6.2-10.2c-2.7-2.2,0.3-7.2,0.3-7.2s1.4-3.9-1.4-14.3c-2.7-10.4,1.4-7.7,0.7-12.6
			s-0.6-8.1,0.5-8.9s2.9-4.8,1.5-10.1c-1.5-5.3-4.4-6.7-4.4-6.7s0.3-4.2,4-4c3.7,0.2,2.1-3.3,2.1-3.3s3.5,0.6,3.8-2.7
			c0.3-3.3,1.5-4.1,2.7-3.5c1.1,0.6,3.3,3.9,4.7,3.4c1.4-0.4,1.3,0.1,0.8-3.7s-1.5-4.5-2.5-7.9s2.4-5.9,0.5-10.5
			c-1.9-4.6-3.9-7.8-3.6-11.6s2.3-10.6-0.7-13c-3-2.4-5.2-2.8-5.2-2.8l-24.6-26.9C166.9,100.4,164.4,100.9,161.4,95.3z"/>
	</g>
	<text transform="matrix(1 0 0 1 319.4308 137.4602)" display="inline"><tspan x="0" y="0" fill="#347CB7" font-family="'Aller'" font-size="32.4981">Norte de </tspan><tspan x="-11.1" y="39" fill="#347CB7" font-family="'Aller'" font-size="32.4981">Santander</tspan></text>
</g>
<g id="Capa_3">
	<g>
		<g>
			<defs>
				<path id="SVGID_5_" d="M56,112.6c0,0-9.2-1.2-12.2,2.1c-3,3.4-2.6,10.5-5.2,13.3c-2.7,2.8-2.5,2.4-2.5,4.8s-1.4,3.1-3.1,4.1
					s-1.5,3.5-1.5,3.5s-1.5,4.5-1.9,8.3c-0.4,3.8,0.7,8-0.7,10c-1.4,2-3.5-0.9-5.3,4.3c-1.8,5.2-2.1,4.4-5.6,3.3s-3.3,4-3.2,5.2
					s-4.4,4.4-5.8,8.4s-1.2,5.9,0,6.8c1.2,0.8,4.2,0.4,5.5,1.8s-1.7,5.2,1.5,6.1c3.3,0.9,7.2,5,10.3,4.3c3.2-0.7,4-0.1,6.5-1.3
					c2.6-1.2,2.5-3,7.1-4.4c4.6-1.4,7.3-2.4,11.2-2c3.9,0.3,2-2.7,4.9-2.9c2.9-0.2,4.3,0.1,6.1-1.4c1.8-1.5,7.3,1.1,9.3-0.2
					c2-1.3,7.9,0.9,7.9,0.9s3.7,0.2,7.9-0.5c4.2-0.7,3.9-2.8,7.5-3.4c3.6-0.6,6.8-1.5,11.8-3.9c4.5,1.6,7-0.8,7.3-0.8
					s-0.2,1.4,3.2,2.1c3.4,0.7,6.9-0.8,9.2,0.8c2.4,1.6,4.5-0.6,6.2,0.9c1.7,1.5,4.3-0.6,5.4,0.3c1.1,0.9,4,0.6,7,1.2
					s4.2-2.5,6.5-1.6c2.4,0.8,2.3,2.6,9.5,2.1s9.6-2.9,12.5-1.8c2.9,1,3.9,0.5,5.2-0.4c1.3-0.9,3.3-0.6,4.3-1.8s1.3-2,4.5-2.3
					c3.2-0.2,7.4-0.2,10.4,0.5c3.1,0.7,6.8-0.8,9.7,0.3c3,1.1,4.7,2.5,7.7,4.7c3,2.3,4.7,3.6,4.1,5.3c-0.6,1.7,2.3,3,5.5,3.3
					c3.3,0.3,7.9,3.2,8.6,5.7c0.7,2.6,6.1,2.8,6.1,2.8s1.4-2.5,3.7-2c2.3,0.4,5,0.7,11.6,0.4c6.5-0.3,14.7-0.3,14.7-0.3
					s6.9-4.5,6.5-5.4s-3.2,0.3-3.3-0.9c-0.1-1.2,3-1.7,0.9-3.2c-2-1.4-5.4-2.1-6.7-5.7s-5.3-8.8-8.2-12.5c-2.9-3.8-7.1-8.6-9.8-10.8
					c-2.8-2.3-7.6-5.4-7.4-8.6s-6.9-8.7-6.9-8.7s-4.6-1.5-5.3-5s-2.6-3.9-4.4-6.1c-1.8-2.3-5.7-5.3-6.9-7.7
					c-1.1-2.4-4-10.5-10.4-9.7c-6.4,0.8-7.9,3.9-7.9,3.9s-5.9,2.5-8.7,0.1c-2.8-2.4-7.4-4.2-7.4-4.2s-4.4-0.2-6.1-1.7
					c-1.7-1.5-1.3-3.1-3.9-5s-6.1,0.4-8.2,0c-2-0.4-4.6-2.9-6.2-3.2c-1.6-0.3-6.7-0.1-11.2,1.9s-3.7,2.8-6.7,2.1
					c-3-0.6-4.3,2.6-4.6,3.4c-0.3,0.8-5.7,1.1-10.4,4.2c-4.7,3.1-4.2-3.9-7.1-5c-2.9-1.1-4.1-1-9,0.1c-4.9,1.1-7.1,0.9-10.8,0.7
					s-5.4-3.9-10.6-1c-5.2,2.9-6.5,3.4-9.7,1.2c-3.2-2.1-3.6-2-8.1-2.6s-6.9-3-8.5-2.3s-5.7,1.5-6.1,2.4
					C56.1,110.7,56,112.6,56,112.6z"/>
			</defs>
			<clipPath id="SVGID_6_">
				<use xlink:href="#SVGID_5_"  overflow="visible"/>
			</clipPath>
			<g clip-path="url(#SVGID_6_)">
				<g>
					
						<line fill="none" stroke="#347CB7" stroke-width="4" stroke-linecap="round" stroke-linejoin="round" stroke-miterlimit="10" x1="8" y1="136.8" x2="156.4" y2="51.9"/>
					
						<line fill="none" stroke="#347CB7" stroke-width="4" stroke-linecap="round" stroke-linejoin="round" stroke-miterlimit="10" x1="8" y1="143.7" x2="156.4" y2="58.8"/>
					
						<line fill="none" stroke="#347CB7" stroke-width="4" stroke-linecap="round" stroke-linejoin="round" stroke-miterlimit="10" x1="8" y1="150.5" x2="156.4" y2="65.6"/>
					
						<line fill="none" stroke="#347CB7" stroke-width="4" stroke-linecap="round" stroke-linejoin="round" stroke-miterlimit="10" x1="8" y1="157.4" x2="156.4" y2="72.5"/>
					
						<line fill="none" stroke="#347CB7" stroke-width="4" stroke-linecap="round" stroke-linejoin="round" stroke-miterlimit="10" x1="8" y1="163.9" x2="156.4" y2="79"/>
					
						<line fill="none" stroke="#347CB7" stroke-width="4" stroke-linecap="round" stroke-linejoin="round" stroke-miterlimit="10" x1="8" y1="170.8" x2="156.4" y2="85.9"/>
					
						<line fill="none" stroke="#347CB7" stroke-width="4" stroke-linecap="round" stroke-linejoin="round" stroke-miterlimit="10" x1="8" y1="177.6" x2="156.4" y2="92.7"/>
					
						<line fill="none" stroke="#347CB7" stroke-width="4" stroke-linecap="round" stroke-linejoin="round" stroke-miterlimit="10" x1="8" y1="184.5" x2="156.4" y2="99.6"/>
					
						<line fill="none" stroke="#347CB7" stroke-width="4" stroke-linecap="round" stroke-linejoin="round" stroke-miterlimit="10" x1="8" y1="191.1" x2="156.4" y2="106.2"/>
					
						<line fill="none" stroke="#347CB7" stroke-width="4" stroke-linecap="round" stroke-linejoin="round" stroke-miterlimit="10" x1="8" y1="198" x2="156.4" y2="113"/>
					
						<line fill="none" stroke="#347CB7" stroke-width="4" stroke-linecap="round" stroke-linejoin="round" stroke-miterlimit="10" x1="8" y1="204.8" x2="156.4" y2="119.9"/>
					
						<line fill="none" stroke="#347CB7" stroke-width="4" stroke-linecap="round" stroke-linejoin="round" stroke-miterlimit="10" x1="8" y1="211.7" x2="156.4" y2="126.8"/>
					
						<line fill="none" stroke="#347CB7" stroke-width="4" stroke-linecap="round" stroke-linejoin="round" stroke-miterlimit="10" x1="8" y1="218.2" x2="156.4" y2="133.3"/>
					
						<line fill="none" stroke="#347CB7" stroke-width="4" stroke-linecap="round" stroke-linejoin="round" stroke-miterlimit="10" x1="8" y1="225" x2="156.4" y2="140.1"/>
					
						<line fill="none" stroke="#347CB7" stroke-width="4" stroke-linecap="round" stroke-linejoin="round" stroke-miterlimit="10" x1="8" y1="231.9" x2="156.4" y2="147"/>
					
						<line fill="none" stroke="#347CB7" stroke-width="4" stroke-linecap="round" stroke-linejoin="round" stroke-miterlimit="10" x1="8" y1="238.8" x2="156.4" y2="153.9"/>
					
						<line fill="none" stroke="#347CB7" stroke-width="4" stroke-linecap="round" stroke-linejoin="round" stroke-miterlimit="10" x1="8" y1="244.8" x2="156.4" y2="159.9"/>
					
						<line fill="none" stroke="#347CB7" stroke-width="4" stroke-linecap="round" stroke-linejoin="round" stroke-miterlimit="10" x1="8" y1="251.6" x2="156.4" y2="166.7"/>
					
						<line fill="none" stroke="#347CB7" stroke-width="4" stroke-linecap="round" stroke-linejoin="round" stroke-miterlimit="10" x1="8" y1="258.5" x2="156.4" y2="173.6"/>
					
						<line fill="none" stroke="#347CB7" stroke-width="4" stroke-linecap="round" stroke-linejoin="round" stroke-miterlimit="10" x1="8" y1="265.4" x2="156.4" y2="180.4"/>
					
						<line fill="none" stroke="#347CB7" stroke-width="4" stroke-linecap="round" stroke-linejoin="round" stroke-miterlimit="10" x1="8" y1="271.9" x2="156.4" y2="187"/>
					
						<line fill="none" stroke="#347CB7" stroke-width="4" stroke-linecap="round" stroke-linejoin="round" stroke-miterlimit="10" x1="8" y1="278.7" x2="156.4" y2="193.8"/>
					
						<line fill="none" stroke="#347CB7" stroke-width="4" stroke-linecap="round" stroke-linejoin="round" stroke-miterlimit="10" x1="8" y1="285.6" x2="156.4" y2="200.7"/>
					
						<line fill="none" stroke="#347CB7" stroke-width="4" stroke-linecap="round" stroke-linejoin="round" stroke-miterlimit="10" x1="8" y1="292.5" x2="156.4" y2="207.5"/>
					
						<line fill="none" stroke="#347CB7" stroke-width="4" stroke-linecap="round" stroke-linejoin="round" stroke-miterlimit="10" x1="8" y1="299.1" x2="156.4" y2="214.1"/>
					
						<line fill="none" stroke="#347CB7" stroke-width="4" stroke-linecap="round" stroke-linejoin="round" stroke-miterlimit="10" x1="8" y1="305.9" x2="156.4" y2="221"/>
					
						<line fill="none" stroke="#347CB7" stroke-width="4" stroke-linecap="round" stroke-linejoin="round" stroke-miterlimit="10" x1="8" y1="312.8" x2="156.4" y2="227.9"/>
					
						<line fill="none" stroke="#347CB7" stroke-width="4" stroke-linecap="round" stroke-linejoin="round" stroke-miterlimit="10" x1="8" y1="319.6" x2="156.4" y2="234.7"/>
					
						<line fill="none" stroke="#347CB7" stroke-width="4" stroke-linecap="round" stroke-linejoin="round" stroke-miterlimit="10" x1="8" y1="326.1" x2="156.4" y2="241.2"/>
					
						<line fill="none" stroke="#347CB7" stroke-width="4" stroke-linecap="round" stroke-linejoin="round" stroke-miterlimit="10" x1="8" y1="333" x2="156.4" y2="248.1"/>
					
						<line fill="none" stroke="#347CB7" stroke-width="4" stroke-linecap="round" stroke-linejoin="round" stroke-miterlimit="10" x1="8" y1="339.9" x2="156.4" y2="255"/>
					
						<line fill="none" stroke="#347CB7" stroke-width="4" stroke-linecap="round" stroke-linejoin="round" stroke-miterlimit="10" x1="8" y1="346.7" x2="156.4" y2="261.8"/>
				</g>
				<g>
					
						<line fill="none" stroke="#347CB7" stroke-width="4" stroke-linecap="round" stroke-linejoin="round" stroke-miterlimit="10" x1="156.4" y1="51.9" x2="304.9" y2="-33"/>
					
						<line fill="none" stroke="#347CB7" stroke-width="4" stroke-linecap="round" stroke-linejoin="round" stroke-miterlimit="10" x1="156.4" y1="58.8" x2="304.9" y2="-26.1"/>
					
						<line fill="none" stroke="#347CB7" stroke-width="4" stroke-linecap="round" stroke-linejoin="round" stroke-miterlimit="10" x1="156.4" y1="65.6" x2="304.9" y2="-19.3"/>
					
						<line fill="none" stroke="#347CB7" stroke-width="4" stroke-linecap="round" stroke-linejoin="round" stroke-miterlimit="10" x1="156.4" y1="72.5" x2="304.9" y2="-12.4"/>
					
						<line fill="none" stroke="#347CB7" stroke-width="4" stroke-linecap="round" stroke-linejoin="round" stroke-miterlimit="10" x1="156.4" y1="79" x2="304.9" y2="-5.9"/>
					
						<line fill="none" stroke="#347CB7" stroke-width="4" stroke-linecap="round" stroke-linejoin="round" stroke-miterlimit="10" x1="156.4" y1="85.9" x2="304.9" y2="0.9"/>
					
						<line fill="none" stroke="#347CB7" stroke-width="4" stroke-linecap="round" stroke-linejoin="round" stroke-miterlimit="10" x1="156.4" y1="92.7" x2="304.9" y2="7.8"/>
					
						<line fill="none" stroke="#347CB7" stroke-width="4" stroke-linecap="round" stroke-linejoin="round" stroke-miterlimit="10" x1="156.4" y1="99.6" x2="304.9" y2="14.7"/>
					
						<line fill="none" stroke="#347CB7" stroke-width="4" stroke-linecap="round" stroke-linejoin="round" stroke-miterlimit="10" x1="156.4" y1="106.2" x2="304.9" y2="21.3"/>
					
						<line fill="none" stroke="#347CB7" stroke-width="4" stroke-linecap="round" stroke-linejoin="round" stroke-miterlimit="10" x1="156.4" y1="113" x2="304.9" y2="28.1"/>
					
						<line fill="none" stroke="#347CB7" stroke-width="4" stroke-linecap="round" stroke-linejoin="round" stroke-miterlimit="10" x1="156.4" y1="119.9" x2="304.9" y2="35"/>
					
						<line fill="none" stroke="#347CB7" stroke-width="4" stroke-linecap="round" stroke-linejoin="round" stroke-miterlimit="10" x1="156.4" y1="126.8" x2="304.9" y2="41.9"/>
					
						<line fill="none" stroke="#347CB7" stroke-width="4" stroke-linecap="round" stroke-linejoin="round" stroke-miterlimit="10" x1="156.4" y1="133.3" x2="304.9" y2="48.4"/>
					
						<line fill="none" stroke="#347CB7" stroke-width="4" stroke-linecap="round" stroke-linejoin="round" stroke-miterlimit="10" x1="156.4" y1="140.1" x2="304.9" y2="55.2"/>
					
						<line fill="none" stroke="#347CB7" stroke-width="4" stroke-linecap="round" stroke-linejoin="round" stroke-miterlimit="10" x1="156.4" y1="147" x2="304.9" y2="62.1"/>
					
						<line fill="none" stroke="#347CB7" stroke-width="4" stroke-linecap="round" stroke-linejoin="round" stroke-miterlimit="10" x1="156.4" y1="153.9" x2="304.9" y2="68.9"/>
					
						<line fill="none" stroke="#347CB7" stroke-width="4" stroke-linecap="round" stroke-linejoin="round" stroke-miterlimit="10" x1="156.4" y1="159.9" x2="304.9" y2="75"/>
					
						<line fill="none" stroke="#347CB7" stroke-width="4" stroke-linecap="round" stroke-linejoin="round" stroke-miterlimit="10" x1="156.4" y1="166.7" x2="304.9" y2="81.8"/>
					
						<line fill="none" stroke="#347CB7" stroke-width="4" stroke-linecap="round" stroke-linejoin="round" stroke-miterlimit="10" x1="156.4" y1="173.6" x2="304.9" y2="88.7"/>
					
						<line fill="none" stroke="#347CB7" stroke-width="4" stroke-linecap="round" stroke-linejoin="round" stroke-miterlimit="10" x1="156.4" y1="180.4" x2="304.9" y2="95.5"/>
					
						<line fill="none" stroke="#347CB7" stroke-width="4" stroke-linecap="round" stroke-linejoin="round" stroke-miterlimit="10" x1="156.4" y1="187" x2="304.9" y2="102"/>
					
						<line fill="none" stroke="#347CB7" stroke-width="4" stroke-linecap="round" stroke-linejoin="round" stroke-miterlimit="10" x1="156.4" y1="193.8" x2="304.9" y2="108.9"/>
					
						<line fill="none" stroke="#347CB7" stroke-width="4" stroke-linecap="round" stroke-linejoin="round" stroke-miterlimit="10" x1="156.4" y1="200.7" x2="304.9" y2="115.8"/>
					
						<line fill="none" stroke="#347CB7" stroke-width="4" stroke-linecap="round" stroke-linejoin="round" stroke-miterlimit="10" x1="156.4" y1="207.5" x2="304.9" y2="122.6"/>
					
						<line fill="none" stroke="#347CB7" stroke-width="4" stroke-linecap="round" stroke-linejoin="round" stroke-miterlimit="10" x1="156.4" y1="214.1" x2="304.9" y2="129.2"/>
					
						<line fill="none" stroke="#347CB7" stroke-width="4" stroke-linecap="round" stroke-linejoin="round" stroke-miterlimit="10" x1="156.4" y1="221" x2="304.9" y2="136.1"/>
					
						<line fill="none" stroke="#347CB7" stroke-width="4" stroke-linecap="round" stroke-linejoin="round" stroke-miterlimit="10" x1="156.4" y1="227.9" x2="304.9" y2="142.9"/>
					
						<line fill="none" stroke="#347CB7" stroke-width="4" stroke-linecap="round" stroke-linejoin="round" stroke-miterlimit="10" x1="156.4" y1="234.7" x2="304.9" y2="149.8"/>
					
						<line fill="none" stroke="#347CB7" stroke-width="4" stroke-linecap="round" stroke-linejoin="round" stroke-miterlimit="10" x1="156.4" y1="241.2" x2="304.9" y2="156.3"/>
					
						<line fill="none" stroke="#347CB7" stroke-width="4" stroke-linecap="round" stroke-linejoin="round" stroke-miterlimit="10" x1="156.4" y1="248.1" x2="304.9" y2="163.2"/>
					
						<line fill="none" stroke="#347CB7" stroke-width="4" stroke-linecap="round" stroke-linejoin="round" stroke-miterlimit="10" x1="156.4" y1="255" x2="304.9" y2="170"/>
					
						<line fill="none" stroke="#347CB7" stroke-width="4" stroke-linecap="round" stroke-linejoin="round" stroke-miterlimit="10" x1="156.4" y1="261.8" x2="304.9" y2="176.9"/>
				</g>
			</g>
		</g>
		<path fill="none" stroke="#347CB7" stroke-width="4" stroke-linecap="round" stroke-linejoin="round" stroke-miterlimit="10" d="
			M56,112.6c0,0-9.2-1.2-12.2,2.1c-3,3.4-2.6,10.5-5.2,13.3c-2.7,2.8-2.5,2.4-2.5,4.8s-1.4,3.1-3.1,4.1s-1.5,3.5-1.5,3.5
			s-1.5,4.5-1.9,8.3c-0.4,3.8,0.7,8-0.7,10c-1.4,2-3.5-0.9-5.3,4.3c-1.8,5.2-2.1,4.4-5.6,3.3s-3.3,4-3.2,5.2s-4.4,4.4-5.8,8.4
			s-1.2,5.9,0,6.8c1.2,0.8,4.2,0.4,5.5,1.8s-1.7,5.2,1.5,6.1c3.3,0.9,7.2,5,10.3,4.3c3.2-0.7,4-0.1,6.5-1.3c2.6-1.2,2.5-3,7.1-4.4
			c4.6-1.4,7.3-2.4,11.2-2c3.9,0.3,2-2.7,4.9-2.9c2.9-0.2,4.3,0.1,6.1-1.4c1.8-1.5,7.3,1.1,9.3-0.2c2-1.3,7.9,0.9,7.9,0.9
			s3.7,0.2,7.9-0.5c4.2-0.7,3.9-2.8,7.5-3.4c3.6-0.6,6.8-1.5,11.8-3.9c4.5,1.6,7-0.8,7.3-0.8s-0.2,1.4,3.2,2.1
			c3.4,0.7,6.9-0.8,9.2,0.8c2.4,1.6,4.5-0.6,6.2,0.9c1.7,1.5,4.3-0.6,5.4,0.3c1.1,0.9,4,0.6,7,1.2s4.2-2.5,6.5-1.6
			c2.4,0.8,2.3,2.6,9.5,2.1s9.6-2.9,12.5-1.8c2.9,1,3.9,0.5,5.2-0.4c1.3-0.9,3.3-0.6,4.3-1.8s1.3-2,4.5-2.3
			c3.2-0.2,7.4-0.2,10.4,0.5c3.1,0.7,6.8-0.8,9.7,0.3c3,1.1,4.7,2.5,7.7,4.7c3,2.3,4.7,3.6,4.1,5.3c-0.6,1.7,2.3,3,5.5,3.3
			c3.3,0.3,7.9,3.2,8.6,5.7c0.7,2.6,6.1,2.8,6.1,2.8s1.4-2.5,3.7-2c2.3,0.4,5,0.7,11.6,0.4c6.5-0.3,14.7-0.3,14.7-0.3
			s6.9-4.5,6.5-5.4s-3.2,0.3-3.3-0.9c-0.1-1.2,3-1.7,0.9-3.2c-2-1.4-5.4-2.1-6.7-5.7s-5.3-8.8-8.2-12.5c-2.9-3.8-7.1-8.6-9.8-10.8
			c-2.8-2.3-7.6-5.4-7.4-8.6s-6.9-8.7-6.9-8.7s-4.6-1.5-5.3-5s-2.6-3.9-4.4-6.1c-1.8-2.3-5.7-5.3-6.9-7.7c-1.1-2.4-4-10.5-10.4-9.7
			c-6.4,0.8-7.9,3.9-7.9,3.9s-5.9,2.5-8.7,0.1c-2.8-2.4-7.4-4.2-7.4-4.2s-4.4-0.2-6.1-1.7c-1.7-1.5-1.3-3.1-3.9-5s-6.1,0.4-8.2,0
			c-2-0.4-4.6-2.9-6.2-3.2c-1.6-0.3-6.7-0.1-11.2,1.9s-3.7,2.8-6.7,2.1c-3-0.6-4.3,2.6-4.6,3.4c-0.3,0.8-5.7,1.1-10.4,4.2
			c-4.7,3.1-4.2-3.9-7.1-5c-2.9-1.1-4.1-1-9,0.1c-4.9,1.1-7.1,0.9-10.8,0.7s-5.4-3.9-10.6-1c-5.2,2.9-6.5,3.4-9.7,1.2
			c-3.2-2.1-3.6-2-8.1-2.6s-6.9-3-8.5-2.3s-5.7,1.5-6.1,2.4C56.1,110.7,56,112.6,56,112.6z"/>
	</g>
	<text transform="matrix(1 0 0 1 333.194 156.4602)" fill="#347CB7" font-family="'Aller'" font-size="32.4981">Arauca</text>
</g>
<g id="Capa_4" display="none">
	<g display="inline">
		<g>
			<defs>
				<path id="SVGID_7_" d="M159.1,8.9c0,0-9.7-1.9-16.9,0c-7.2,1.9-8.9,3.8-13.7,3.8c-4.8,0-7.4,4.4-7.4,4.4s13.3,1,10.1,3
					c-3.2,2.1-7.2,7.4-4.4,15c2.9,7.6-0.8,7.4-2.5,9.5c-1.7,2.1,0.2,4.6-7.6,5.3s-1,4.8-6.3,5.3c-5.3,0.6-9.5-0.6-15.6,4.6
					c-6.1,5.1-2.5,8.4-8.7,13.3c-6.3,4.9-6.1,12.2-5.9,16.3c0.2,4.2,7.2,8,12.5,16c5.3,8,11.8,8.6,13.9,19.8
					c2.1,11.2,2.5,12.2,2.5,12.2S85.7,137,84,136.3s-2.3,7.4-8.9,9.5s6.5,3,11.2,9.7c4.8,6.7,8.6,12.4,6.5,17.9
					c-2.1,5.5,3-0.2,5.1,2.3c2.1,2.5,9.7,12.9,9.1,15.6s-8.7,10.3-4.2,17.5c4.6,7.2,8,8.7,5.3,16c-2.7,7.2-2.1,9.9,0,12.4
					s4.2,9.5,4.8,16.3c0.6,6.8,1.9,8-0.2,14.3c-2.1,6.3-4.6,14.4-1.3,21.9c3.2,7.4,11.8,11.8,8,16.2c-3.8,4.4-5.1,11.8-7.2,16.5
					c-2.1,4.8,4,2.1,9.7,2.5c5.7,0.4,9.5,0,14.6,1.7c5.1,1.7,8.2,2.7,11.6-3.6c3.4-6.3,4.8-1.5,5.5-6.1s-1.1-7.8,1-9.5
					c2.1-1.7,8.7,0.4,6.7-5.5c-2.1-5.9-8.9-7.6-10.9-9.9c-2-2.3-4.5-7.8-3.2-12.9c1.3-5.1,6.1-12.7,6.5-16c0.4-3.2,2.1-9.3,0-9.6
					c-2.2-0.3-7.6-2.3-7.5,0s2.3,6.8-1.6,9.8c-3.9,3-3.8,0.8-4.8-2.4c-1-3.3,1-5,1.6-8.6s-1.8-2-4.5-8.3c-2.7-6.3-2.3-11.3,0.3-13.5
					c2.6-2.2,5.8-2.6,6.9-6.4c1.1-3.8,2.6-2.9,2.9-8s-2.4-14.7-1.2-18.8c1.2-4.1,1.2-15.5,5.6-17.3c4.4-1.8,5.7-4.9,5-8.7
					c-0.7-3.8,1.8,1.1,3.1-1.8s5.7-16,8.8-17.4c3.1-1.4,5.6-13.3,11.3-13.5s3.3-2.2,3.9-6c0.7-3.8,5.3-10.1,7.8-15.6
					c2.4-5.6,5.8-4.1,5.3-6.4c-0.5-2.3-4.6-3.4-4.5-8.3s2.8-11.1,4.5-14.7c1.7-3.5,6.3-13.5,5.2-20c-1.1-6.5,1.8-9.5,0.2-11.3
					c-1.7-1.8-7,1-11.4-1.6c-4.5-2.6-9.1-3.5-11.8-2.2s-5,4.8-5.7,2.2c-0.7-2.6-4.8-4.6-3.5-7.2c1.2-2.6,5-3.7,6.7-6
					c1.6-2.3,4.6-9.2-0.5-12c-5.2-2.7-5.8,3-6.3-0.8c-0.4-3.8-2.6-7.5-4.2-7.6c-1.6-0.1-3.8,4.6-4.2,2.7
					C160.5,21.8,163.3,12.7,159.1,8.9z"/>
			</defs>
			<clipPath id="SVGID_8_">
				<use xlink:href="#SVGID_7_"  overflow="visible"/>
			</clipPath>
			<g clip-path="url(#SVGID_8_)">
				
					<line fill="none" stroke="#347CB7" stroke-width="4" stroke-linecap="round" stroke-linejoin="round" stroke-miterlimit="10" x1="37.7" y1="17.1" x2="343.3" y2="-157.6"/>
				
					<line fill="none" stroke="#347CB7" stroke-width="4" stroke-linecap="round" stroke-linejoin="round" stroke-miterlimit="10" x1="37.7" y1="31.2" x2="343.3" y2="-143.5"/>
				
					<line fill="none" stroke="#347CB7" stroke-width="4" stroke-linecap="round" stroke-linejoin="round" stroke-miterlimit="10" x1="37.7" y1="45.3" x2="343.3" y2="-129.4"/>
				
					<line fill="none" stroke="#347CB7" stroke-width="4" stroke-linecap="round" stroke-linejoin="round" stroke-miterlimit="10" x1="37.7" y1="59.5" x2="343.3" y2="-115.3"/>
				
					<line fill="none" stroke="#347CB7" stroke-width="4" stroke-linecap="round" stroke-linejoin="round" stroke-miterlimit="10" x1="37.7" y1="72.8" x2="343.3" y2="-101.9"/>
				
					<line fill="none" stroke="#347CB7" stroke-width="4" stroke-linecap="round" stroke-linejoin="round" stroke-miterlimit="10" x1="37.7" y1="87" x2="343.3" y2="-87.8"/>
				
					<line fill="none" stroke="#347CB7" stroke-width="4" stroke-linecap="round" stroke-linejoin="round" stroke-miterlimit="10" x1="37.7" y1="101.1" x2="343.3" y2="-73.7"/>
				
					<line fill="none" stroke="#347CB7" stroke-width="4" stroke-linecap="round" stroke-linejoin="round" stroke-miterlimit="10" x1="37.7" y1="115.2" x2="343.3" y2="-59.5"/>
				
					<line fill="none" stroke="#347CB7" stroke-width="4" stroke-linecap="round" stroke-linejoin="round" stroke-miterlimit="10" x1="37.7" y1="128.8" x2="343.3" y2="-46"/>
				
					<line fill="none" stroke="#347CB7" stroke-width="4" stroke-linecap="round" stroke-linejoin="round" stroke-miterlimit="10" x1="37.7" y1="142.9" x2="343.3" y2="-31.8"/>
				
					<line fill="none" stroke="#347CB7" stroke-width="4" stroke-linecap="round" stroke-linejoin="round" stroke-miterlimit="10" x1="37.7" y1="157" x2="343.3" y2="-17.7"/>
				
					<line fill="none" stroke="#347CB7" stroke-width="4" stroke-linecap="round" stroke-linejoin="round" stroke-miterlimit="10" x1="37.7" y1="171.1" x2="343.3" y2="-3.6"/>
				
					<line fill="none" stroke="#347CB7" stroke-width="4" stroke-linecap="round" stroke-linejoin="round" stroke-miterlimit="10" x1="37.7" y1="184.5" x2="343.3" y2="9.8"/>
				
					<line fill="none" stroke="#347CB7" stroke-width="4" stroke-linecap="round" stroke-linejoin="round" stroke-miterlimit="10" x1="37.7" y1="198.7" x2="343.3" y2="23.9"/>
				
					<line fill="none" stroke="#347CB7" stroke-width="4" stroke-linecap="round" stroke-linejoin="round" stroke-miterlimit="10" x1="37.7" y1="212.8" x2="343.3" y2="38"/>
				
					<line fill="none" stroke="#347CB7" stroke-width="4" stroke-linecap="round" stroke-linejoin="round" stroke-miterlimit="10" x1="37.7" y1="226.9" x2="343.3" y2="52.2"/>
				
					<line fill="none" stroke="#347CB7" stroke-width="4" stroke-linecap="round" stroke-linejoin="round" stroke-miterlimit="10" x1="37.7" y1="239.3" x2="343.3" y2="64.5"/>
				
					<line fill="none" stroke="#347CB7" stroke-width="4" stroke-linecap="round" stroke-linejoin="round" stroke-miterlimit="10" x1="37.7" y1="253.4" x2="343.3" y2="78.6"/>
				
					<line fill="none" stroke="#347CB7" stroke-width="4" stroke-linecap="round" stroke-linejoin="round" stroke-miterlimit="10" x1="37.7" y1="267.5" x2="343.3" y2="92.8"/>
				
					<line fill="none" stroke="#347CB7" stroke-width="4" stroke-linecap="round" stroke-linejoin="round" stroke-miterlimit="10" x1="37.7" y1="281.6" x2="343.3" y2="106.9"/>
				
					<line fill="none" stroke="#347CB7" stroke-width="4" stroke-linecap="round" stroke-linejoin="round" stroke-miterlimit="10" x1="37.7" y1="295" x2="343.3" y2="120.3"/>
				
					<line fill="none" stroke="#347CB7" stroke-width="4" stroke-linecap="round" stroke-linejoin="round" stroke-miterlimit="10" x1="37.7" y1="309.1" x2="343.3" y2="134.4"/>
				
					<line fill="none" stroke="#347CB7" stroke-width="4" stroke-linecap="round" stroke-linejoin="round" stroke-miterlimit="10" x1="37.7" y1="323.2" x2="343.3" y2="148.5"/>
				
					<line fill="none" stroke="#347CB7" stroke-width="4" stroke-linecap="round" stroke-linejoin="round" stroke-miterlimit="10" x1="37.7" y1="337.4" x2="343.3" y2="162.6"/>
				
					<line fill="none" stroke="#347CB7" stroke-width="4" stroke-linecap="round" stroke-linejoin="round" stroke-miterlimit="10" x1="37.7" y1="350.9" x2="343.3" y2="176.2"/>
				
					<line fill="none" stroke="#347CB7" stroke-width="4" stroke-linecap="round" stroke-linejoin="round" stroke-miterlimit="10" x1="37.7" y1="365.1" x2="343.3" y2="190.3"/>
				
					<line fill="none" stroke="#347CB7" stroke-width="4" stroke-linecap="round" stroke-linejoin="round" stroke-miterlimit="10" x1="37.7" y1="379.2" x2="343.3" y2="204.4"/>
				
					<line fill="none" stroke="#347CB7" stroke-width="4" stroke-linecap="round" stroke-linejoin="round" stroke-miterlimit="10" x1="37.7" y1="393.3" x2="343.3" y2="218.6"/>
				
					<line fill="none" stroke="#347CB7" stroke-width="4" stroke-linecap="round" stroke-linejoin="round" stroke-miterlimit="10" x1="37.7" y1="406.7" x2="343.3" y2="232"/>
				
					<line fill="none" stroke="#347CB7" stroke-width="4" stroke-linecap="round" stroke-linejoin="round" stroke-miterlimit="10" x1="37.7" y1="420.8" x2="343.3" y2="246.1"/>
				
					<line fill="none" stroke="#347CB7" stroke-width="4" stroke-linecap="round" stroke-linejoin="round" stroke-miterlimit="10" x1="37.7" y1="434.9" x2="343.3" y2="260.2"/>
				
					<line fill="none" stroke="#347CB7" stroke-width="4" stroke-linecap="round" stroke-linejoin="round" stroke-miterlimit="10" x1="37.7" y1="449" x2="343.3" y2="274.3"/>
			</g>
		</g>
		<path fill="none" stroke="#347CB7" stroke-width="4" stroke-linecap="round" stroke-linejoin="round" stroke-miterlimit="10" d="
			M159.1,8.9c0,0-9.7-1.9-16.9,0c-7.2,1.9-8.9,3.8-13.7,3.8c-4.8,0-7.4,4.4-7.4,4.4s13.3,1,10.1,3c-3.2,2.1-7.2,7.4-4.4,15
			c2.9,7.6-0.8,7.4-2.5,9.5c-1.7,2.1,0.2,4.6-7.6,5.3s-1,4.8-6.3,5.3c-5.3,0.6-9.5-0.6-15.6,4.6c-6.1,5.1-2.5,8.4-8.7,13.3
			c-6.3,4.9-6.1,12.2-5.9,16.3c0.2,4.2,7.2,8,12.5,16c5.3,8,11.8,8.6,13.9,19.8c2.1,11.2,2.5,12.2,2.5,12.2S85.7,137,84,136.3
			s-2.3,7.4-8.9,9.5s6.5,3,11.2,9.7c4.8,6.7,8.6,12.4,6.5,17.9c-2.1,5.5,3-0.2,5.1,2.3c2.1,2.5,9.7,12.9,9.1,15.6
			s-8.7,10.3-4.2,17.5c4.6,7.2,8,8.7,5.3,16c-2.7,7.2-2.1,9.9,0,12.4s4.2,9.5,4.8,16.3c0.6,6.8,1.9,8-0.2,14.3
			c-2.1,6.3-4.6,14.4-1.3,21.9c3.2,7.4,11.8,11.8,8,16.2c-3.8,4.4-5.1,11.8-7.2,16.5c-2.1,4.8,4,2.1,9.7,2.5c5.7,0.4,9.5,0,14.6,1.7
			c5.1,1.7,8.2,2.7,11.6-3.6c3.4-6.3,4.8-1.5,5.5-6.1s-1.1-7.8,1-9.5c2.1-1.7,8.7,0.4,6.7-5.5c-2.1-5.9-8.9-7.6-10.9-9.9
			c-2-2.3-4.5-7.8-3.2-12.9c1.3-5.1,6.1-12.7,6.5-16c0.4-3.2,2.1-9.3,0-9.6c-2.2-0.3-7.6-2.3-7.5,0s2.3,6.8-1.6,9.8
			c-3.9,3-3.8,0.8-4.8-2.4c-1-3.3,1-5,1.6-8.6s-1.8-2-4.5-8.3c-2.7-6.3-2.3-11.3,0.3-13.5c2.6-2.2,5.8-2.6,6.9-6.4
			c1.1-3.8,2.6-2.9,2.9-8s-2.4-14.7-1.2-18.8c1.2-4.1,1.2-15.5,5.6-17.3c4.4-1.8,5.7-4.9,5-8.7c-0.7-3.8,1.8,1.1,3.1-1.8
			s5.7-16,8.8-17.4c3.1-1.4,5.6-13.3,11.3-13.5s3.3-2.2,3.9-6c0.7-3.8,5.3-10.1,7.8-15.6c2.4-5.6,5.8-4.1,5.3-6.4
			c-0.5-2.3-4.6-3.4-4.5-8.3s2.8-11.1,4.5-14.7c1.7-3.5,6.3-13.5,5.2-20c-1.1-6.5,1.8-9.5,0.2-11.3c-1.7-1.8-7,1-11.4-1.6
			c-4.5-2.6-9.1-3.5-11.8-2.2s-5,4.8-5.7,2.2c-0.7-2.6-4.8-4.6-3.5-7.2c1.2-2.6,5-3.7,6.7-6c1.6-2.3,4.6-9.2-0.5-12
			c-5.2-2.7-5.8,3-6.3-0.8c-0.4-3.8-2.6-7.5-4.2-7.6c-1.6-0.1-3.8,4.6-4.2,2.7C160.5,21.8,163.3,12.7,159.1,8.9z"/>
	</g>
	<text transform="matrix(1 0 0 1 342.2281 156.4602)" display="inline" fill="#347CB7" font-family="'Aller'" font-size="32.4981">César</text>
</g>
</svg>
